<?xml version="1.0" standalone="no"?>
<!DOCTYPE svg PUBLIC "-//W3C//DTD SVG 20010904//EN"
 "http://www.w3.org/TR/2001/REC-SVG-20010904/DTD/svg10.dtd">
<svg version="1.0" xmlns="http://www.w3.org/2000/svg"
 width="981.000000pt" height="981.000000pt" viewBox="0 0 981.000000 981.000000"
 preserveAspectRatio="xMidYMid meet">
<metadata>
Created by potrace 1.11, written by Peter Selinger 2001-2013
</metadata>
<g transform="translate(0.000000,981.000000) scale(0.100000,-0.100000)"
fill="#000000" stroke="none">
<path d="M4625 8893 c-784 -9 -1494 -79 -1825 -179 -270 -82 -561 -209 -715
-312 -176 -118 -279 -232 -354 -394 -71 -152 -330 -864 -658 -1808 l-99 -285
-245 -5 -244 -5 -78 -37 c-86 -41 -177 -121 -226 -197 -17 -25 -62 -141 -101
-256 -59 -174 -71 -221 -71 -275 -1 -105 36 -171 115 -209 43 -20 62 -21 275
-21 l230 0 -50 -147 c-83 -245 -79 -144 -79 -1954 0 -1778 -5 -1647 69 -1745
42 -56 114 -108 174 -126 32 -10 208 -13 747 -13 l705 0 67 33 c81 40 149 111
177 188 20 51 21 76 21 414 l0 360 2450 0 2450 0 0 -360 c0 -338 1 -363 21
-414 28 -77 96 -148 177 -188 l67 -33 715 0 715 0 67 33 c74 36 133 96 170
170 l23 47 3 1595 c2 1126 0 1627 -8 1705 -10 97 -55 259 -117 422 -4 9 53 13
234 15 272 3 292 9 348 87 26 37 30 53 33 121 4 74 1 87 -67 292 -41 121 -84
233 -101 258 -55 83 -130 149 -219 193 l-84 42 -248 3 c-220 3 -248 5 -254 20
-4 9 -49 136 -100 282 -397 1129 -639 1784 -708 1914 -69 129 -254 289 -446
386 -191 95 -532 208 -769 254 -232 45 -568 84 -937 106 -158 10 -996 32
-1040 27 -11 -1 -105 -3 -210 -4z m895 -753 c922 -36 1524 -137 1809 -305 102
-61 111 -74 217 -360 196 -529 315 -885 422 -1265 69 -243 116 -429 110 -435
-9 -9 -362 -97 -524 -129 -768 -156 -1615 -229 -2644 -229 -1016 0 -1845 70
-2605 219 -211 42 -559 126 -573 139 -10 9 144 579 239 885 118 380 363 1027
413 1093 16 21 59 57 95 82 256 170 844 272 1751 304 322 12 1001 12 1290 1z
m-3920 -3684 c165 -43 362 -119 726 -281 295 -132 419 -195 494 -251 106 -80
145 -156 136 -261 -12 -146 -104 -224 -296 -254 -47 -7 -242 -9 -578 -6 -418
3 -524 7 -602 21 -266 47 -405 118 -461 234 -20 41 -23 66 -27 217 -5 195 9
382 33 439 55 130 171 181 390 171 50 -3 133 -16 185 -29z m7025 9 c80 -24
120 -57 157 -132 l33 -67 3 -284 c3 -271 2 -285 -18 -327 -56 -115 -201 -187
-468 -232 -94 -16 -172 -18 -642 -18 -572 0 -593 2 -691 51 -149 75 -185 270
-74 402 68 80 180 143 570 317 393 176 645 270 810 301 83 16 251 10 320 -11z"/>
</g>
</svg>
